#!OML:ASF H:\Terrain\Patient Classification 1\Takeo\Monday\TakeoMonday.ASF
:FULLY-SPECIFIED
:DEGREES
116
root 10.1241 17.4813 -0.563985 -8.26683 -29.5152 3.56249
lowerback 7.6679 0.182311 1.0274
upperback 3.91345 0.293012 2.22154
thorax -0.264195 0.123329 1.68771
lowerneck -12.3183 9.22074 3.60759
upperneck 1.83009 12.3333 -9.77805
head 3.37151 5.73454 -2.67956
rclavicle 2.40529e-014 3.18055e-014
rhumerus -16.3906 26.8574 -74.9197
rradius 120.447
rwrist -14.9914
rhand -24.0112 24.4263
rfingers 7.12502
rthumb 2.46655 -5.53914
lclavicle 2.40529e-014 3.18055e-014
lhumerus -32.5138 -6.31312 90.7879
lradius 114.085
lwrist 23.1904
lhand -31.729 2.97526
lfingers 7.12502
lthumb -4.9871 32.8966
rfemur 1.85096 -4.94237 16.6509
rtibia 28.5844
rfoot -21.2563 -16.9899
rtoes -6.66621
lfemur -12.8438 12.8811 -21.2884
ltibia 34.0659
lfoot -9.70625 15.9493
ltoes -9.89082
117
root 10.1354 17.4689 -0.540534 -8.01223 -28.7417 2.81702
lowerback 7.61792 0.196363 1.52149
upperback 4.12366 0.335435 2.22775
thorax -0.0170988 0.150944 1.41402
lowerneck -12.7487 9.0671 3.49025
upperneck 1.79599 12.1199 -9.6114
head 3.39665 5.62329 -2.61481
rclavicle -5.12864e-014 1.59028e-014
rhumerus -14.2969 26.8281 -74.2422
rradius 120.031
rwrist -14.8393
rhand -23.7755 24.4595
rfingers 7.12502
rthumb 2.6942 -5.50323
lclavicle -5.12864e-014 1.59028e-014
lhumerus -32.009 -6.48554 90.9234
lradius 114.015
lwrist 23.0472
lhand -31.7555 2.77031
lfingers 7.12502
lthumb -5.01262 32.691
rfemur 2.28452 -5.22671 17.2734
rtibia 28.3853
rfoot -21.4157 -17.4366
rtoes -7.25974
lfemur -12.9582 12.4496 -20.7519
ltibia 34.3769
lfoot -9.45539 15.6448
ltoes -9.98854
118
root 10.1485 17.4614 -0.512306 -8.06777 -27.7924 2.61622
lowerback 7.81283 0.166825 1.48471
upperback 4.18458 0.297813 2.15557
thorax -0.0610849 0.132405 1.36288
lowerneck -12.3716 8.87341 1.70303
upperneck 0.847745 11.9191 -7.36515
head 3.05208 5.65001 -1.90256
rclavicle 1.2921e-015 4.77083e-015
rhumerus -11.955 27.0487 -73.3402
rradius 119.5
rwrist -15.1934
rhand -22.9756 23.6496
rfingers 7.12502
rthumb 3.46664 -6.302
lclavicle 1.2921e-015 4.77083e-015
lhumerus -31.8026 -6.61379 91.0406
lradius 114.053
lwrist 23.0931
lhand -31.7332 3.26646
lfingers 7.12502
lthumb -4.99107 33.1877
rfemur 2.79077 -5.80496 17.2492
rtibia 28.2228
rfoot -21.6724 -17.5789
rtoes -6.43769
lfemur -12.9411 11.797 -20.6902
ltibia 34.5996
lfoot -11.264 15.2333
ltoes -1.25025
119
root 10.155 17.4536 -0.483708 -8.18739 -26.8177 2.78571
lowerback 8.05334 0.264944 1.08647
upperback 3.98961 0.414928 1.99179
thorax -0.39897 0.188267 1.40707
lowerneck -11.5934 8.49487 0.257089
upperneck 0.345839 11.4902 -5.74806
head 2.4874 5.5192 -1.21686
rclavicle 8.44835e-015 -2.14687e-014
rhumerus -10.0458 27.2742 -72.3698
rradius 118.979
rwrist -15.3436
rhand -22.9569 23.07
rfingers 7.12502
rthumb 3.48474 -6.88121
lclavicle 8.44835e-015 -2.14687e-014
lhumerus -32.0907 -7.06101 91.4247
lradius 114.089
lwrist 23.0251
lhand -31.6808 3.48611
lfingers 7.12502
lthumb -4.9405 33.4085
rfemur 3.19834 -6.35213 16.8908
rtibia 28.0029
rfoot -21.7771 -17.7863
rtoes -5.98184
lfemur -13.0009 11.2224 -21.0023
ltibia 34.8192
lfoot -12.459 14.6289
ltoes 2.52057
120
root 10.1567 17.4388 -0.452844 -8.16455 -25.901 2.62863
lowerback 8.13075 0.402118 0.910461
upperback 3.86672 0.591756 1.9605
thorax -0.573163 0.27608 1.45807
lowerneck -11.6748 8.05279 0.447458
upperneck 0.74029 10.9104 -5.9293
head 2.64626 5.21519 -1.33284
rclavicle 1.75924e-014 3.18055e-015
rhumerus -8.24401 27.4507 -71.3024
rradius 118.383
rwrist -14.8881
rhand -23.559 22.9462
rfingers 7.12502
rthumb 2.90322 -7.01381
lclavicle 1.75924e-014 3.18055e-015
lhumerus -32.1764 -7.5177 91.9575
lradius 113.972
lwrist 23.1002
lhand -31.5989 2.97524
lfingers 7.12502
lthumb -4.86144 32.8995
rfemur 3.64348 -6.84278 16.8889
rtibia 27.7396
rfoot -21.7603 -18.0968
rtoes -6.39128
lfemur -13.0734 10.8034 -21.0593
ltibia 35.1054
lfoot -11.4316 14.3706
ltoes -5.37711
121
root 10.1597 17.4427 -0.421605 -7.7617 -25.0424 2.02848
lowerback 7.98197 0.474967 1.11687
upperback 3.82546 0.703244 2.0146
thorax -0.533898 0.334558 1.3893
lowerneck -12.7746 7.78377 2.32195
upperneck 1.6648 10.465 -7.89605
head 3.42963 4.88552 -2.27919
rclavicle -2.92213e-014 7.95139e-016
rhumerus -6.08314 27.4923 -70.2299
rradius 117.675
rwrist -14.7173
rhand -23.5218 22.7991
rfingers 7.12502
rthumb 2.93915 -7.16035
lclavicle -2.92213e-014 7.95139e-016
lhumerus -31.9396 -7.90323 92.22
lradius 113.958
lwrist 23.4848
lhand -31.6264 2.72913
lfingers 7.12502
lthumb -4.888 32.6528
rfemur 3.84763 -7.34751 17.3743
rtibia 27.544
rfoot -21.6826 -18.316
rtoes -6.52575
lfemur -13.3334 10.2769 -20.6452
ltibia 35.4281
lfoot -10.4389 13.7746
ltoes -15.1717
122
root 10.1614 17.4612 -0.388246 -7.49362 -24.1011 1.77463
lowerback 7.74897 0.519818 1.06962
upperback 3.8155 0.755046 1.85977
thorax -0.415285 0.362419 1.25371
lowerneck -12.2708 7.58124 0.493647
upperneck 0.9905 10.2791 -5.65515
head 2.80653 4.89531 -1.26824
rclavicle -8.44835e-016 1.51076e-014
rhumerus -3.87849 27.5137 -69.2873
rradius 117.024
rwrist -14.6867
rhand -23.9666 22.9379
rfingers 7.12502
rthumb 2.5096 -7.0271
lclavicle -8.44835e-016 1.51076e-014
lhumerus -31.6791 -8.36477 92.2484
lradius 113.939
lwrist 23.7615
lhand -31.7115 3.06841
lfingers 7.12502
lthumb -4.97017 32.9901
rfemur 3.99508 -7.82958 17.5241
rtibia 27.4597
rfoot -21.6944 -18.5292
rtoes -6.44075
lfemur -13.5679 9.59267 -20.4694
ltibia 35.733
lfoot -10.9801 12.79
ltoes -16.1758
123
root 10.1588 17.4532 -0.35956 -7.529 -23.2022 1.91477
lowerback 7.71791 0.631252 0.562964
upperback 3.76908 0.868738 1.57259
thorax -0.451313 0.416897 1.23323
lowerneck -12.1506 7.35994 0.357467
upperneck 0.932969 9.96993 -5.10448
head 2.70997 4.76588 -1.09532
rclavicle 4.7758e-014 -1.59028e-014
rhumerus -1.8821 27.6273 -68.5171
rradius 116.347
rwrist -14.1026
rhand -25.0338 22.943
rfingers 7.12502
rthumb 1.47894 -7.03159
lclavicle 4.7758e-014 -1.59028e-014
lhumerus -31.5346 -8.82185 92.1779
lradius 113.842
lwrist 23.9775
lhand -31.5372 3.2333
lfingers 7.12502
lthumb -4.80184 33.1589
rfemur 4.23157 -8.11122 17.3383
rtibia 27.3998
rfoot -21.8231 -19.0638
rtoes -6.89549
lfemur -13.7103 9.2361 -20.7287
ltibia 36.0115
lfoot -11.4831 12.2253
ltoes -13.87
124
root 10.1535 17.425 -0.335922 -7.27956 -22.3237 1.68247
lowerback 7.71129 0.794673 0.346137
upperback 3.61548 1.07487 1.44062
thorax -0.611343 0.520249 1.20128
lowerneck -12.0218 6.86521 -0.108104
upperneck 0.763516 9.33161 -4.42058
head 2.54279 4.47737 -0.849033
rclavicle 4.70623e-014 -5.56597e-015
rhumerus 0.0812821 27.4707 -67.6794
rradius 115.541
rwrist -13.9967
rhand -24.9024 22.7008
rfingers 7.12502
rthumb 1.60578 -7.27295
lclavicle 4.70623e-014 -5.56597e-015
lhumerus -31.5206 -9.31523 92.3738
lradius 113.881
lwrist 24.1052
lhand -31.3368 3.27402
lfingers 7.12502
lthumb -4.60833 33.2039
rfemur 4.27906 -8.49322 17.5759
rtibia 27.3239
rfoot -21.8955 -19.6999
rtoes -7.79253
lfemur -14.0509 8.99554 -20.6792
ltibia 36.2548
lfoot -11.6037 11.8287
ltoes -13.1615
125
root 10.1464 17.413 -0.304274 -6.88188 -21.3122 1.13558
lowerback 7.54701 0.901968 0.468365
upperback 3.50067 1.22711 1.36683
thorax -0.637757 0.599423 1.04571
lowerneck -11.8419 6.39055 -0.569699
upperneck 0.623513 8.71863 -3.64038
head 2.382 4.20405 -0.571551
rclavicle -4.3832e-014 -6.36111e-015
rhumerus 2.2028 27.1633 -66.6917
rradius 114.696
rwrist -14.3368
rhand -24.0016 22.5115
rfingers 7.12502
rthumb 2.47581 -7.45393
lclavicle -4.3832e-014 -6.36111e-015
lhumerus -31.4978 -9.90706 92.6445
lradius 113.921
lwrist 24.0523
lhand -31.3561 3.59531
lfingers 7.12502
lthumb -4.62704 33.5248
rfemur 4.3647 -9.08369 18.0845
rtibia 27.2556
rfoot -22.0259 -20.1834
rtoes -8.23905
lfemur -14.3492 8.39874 -20.2552
ltibia 36.5059
lfoot -11.778 11.112
ltoes -14.1369
126
root 10.1354 17.4192 -0.266275 -6.73083 -20.2408 0.691253
lowerback 7.45925 0.9125 0.427823
upperback 3.54075 1.2347 1.07436
thorax -0.542673 0.605506 0.768788
lowerneck -12.0386 6.21546 0.409045
upperneck 0.732778 8.3535 -3.59213
head 2.49665 4.02566 -0.733078
rclavicle 2.39784e-014 -1.59028e-015
rhumerus 4.56319 26.8947 -66.1212
rradius 113.628
rwrist -14.1305
rhand -23.3617 21.9334
rfingers 7.12502
rthumb 3.09376 -8.02387
lclavicle 2.39784e-014 -1.59028e-015
lhumerus -31.27 -10.4418 92.2562
lradius 113.868
lwrist 23.9514
lhand -31.3668 3.66059
lfingers 7.12502
lthumb -4.63737 33.5898
rfemur 4.75237 -9.61631 18.4729
rtibia 27.1262
rfoot -22.3857 -20.5918
rtoes -7.54481
lfemur -14.4381 7.86177 -19.9228
ltibia 36.7928
lfoot -11.899 10.4123
ltoes -14.7226
127
root 10.1231 17.4182 -0.228374 -6.58241 -19.1695 0.448552
lowerback 7.32407 0.918449 0.174343
upperback 3.57923 1.22211 0.727061
thorax -0.426108 0.599702 0.557512
lowerneck -12.231 5.98205 1.0097
upperneck 0.553114 7.93235 -3.20639
head 2.47207 3.83366 -0.734561
rclavicle -7.20594e-015 2.78299e-015
rhumerus 7.12423 26.6444 -65.4855
rradius 112.339
rwrist -13.6804
rhand -23.3435 21.217
rfingers 7.12502
rthumb 3.11137 -8.74
lclavicle -7.20594e-015 2.78299e-015
lhumerus -30.9292 -10.7339 91.7788
lradius 113.728
lwrist 23.9517
lhand -31.2537 3.26701
lfingers 7.12502
lthumb -4.52815 33.1986
rfemur 5.05654 -10.2324 18.6485
rtibia 26.9137
rfoot -22.6003 -21.0057
rtoes -6.67678
lfemur -14.6377 7.53484 -19.8463
ltibia 37.0298
lfoot -11.9108 9.84911
ltoes -13.8576
128
root 10.1117 17.4064 -0.191812 -6.27928 -18.108 0.453336
lowerback 7.04178 1.13077 -0.221126
upperback 3.37753 1.48066 0.530472
thorax -0.484896 0.727867 0.560852
lowerneck -11.8467 5.40833 0.105138
upperneck 0.221632 7.24182 -2.12553
head 2.18675 3.53139 -0.298116
rclavicle 3.19671e-014 3.18055e-015
rhumerus 9.21704 26.2745 -64.1693
rradius 111.162
rwrist -13.4103
rhand -23.877 21.0418
rfingers 7.12502
rthumb 2.59615 -8.92219
lclavicle 3.19671e-014 3.18055e-015
lhumerus -31.0311 -11.2613 92.2499
lradius 113.541
lwrist 23.6519
lhand -31.1412 2.79249
lfingers 7.12502
lthumb -4.41946 32.7264
rfemur 5.06207 -10.932 18.5796
rtibia 26.7076
rfoot -22.6994 -21.3398
rtoes -6.79308
lfemur -15.0528 7.04926 -20.0235
ltibia 37.1632
lfoot -12.1587 9.3172
ltoes -11.6282
129
root 10.1018 17.39 -0.156605 -5.99867 -16.9295 0.362079
lowerback 6.8452 1.30592 -0.503109
upperback 3.12351 1.698 0.359817
thorax -0.643098 0.837089 0.528492
lowerneck -11.4033 4.88722 -0.684231
upperneck 0.199081 6.61772 -1.17012
head 2.02572 3.25304 0.0871037
rclavicle 1.48343e-014 -5.36719e-015
rhumerus 11.0598 25.8985 -63.0416
rradius 110.023
rwrist -13.2392
rhand -24.3119 20.9279
rfingers 7.12502
rthumb 2.17614 -9.0408
lclavicle 1.48343e-014 -5.36719e-015
lhumerus -31.4502 -11.8841 92.8529
lradius 113.578
lwrist 23.1101
lhand -30.9083 2.58976
lfingers 7.12502
lthumb -4.19456 32.5282
rfemur 5.12478 -11.6925 18.5957
rtibia 26.595
rfoot -23.0386 -21.6339
rtoes -7.53314
lfemur -15.446 6.3956 -20.1547
ltibia 37.2147
lfoot -12.1125 9.08649
ltoes -13.349
